<?xml version="1.0" encoding="UTF-8"?>
<!DOCTYPE svg PUBLIC "-//W3C//DTD SVG 1.1//EN" "http://www.w3.org/Graphics/SVG/1.1/DTD/svg11.dtd">
<svg xmlns="http://www.w3.org/2000/svg" version="1.1" width="1920px" height="3200px" style="shape-rendering:geometricPrecision; text-rendering:geometricPrecision; image-rendering:optimizeQuality; fill-rule:evenodd; clip-rule:evenodd" xmlns:xlink="http://www.w3.org/1999/xlink">
<g><path style="opacity:1" fill="#000000" d="M 1000.5,105.5 C 1306.5,105.5 1612.5,105.5 1918.5,105.5C 1918.5,368.833 1918.5,632.167 1918.5,895.5C 1886.5,895.5 1854.5,895.5 1822.5,895.5C 1822.5,937.5 1822.5,979.5 1822.5,1021.5C 1780.5,1021.5 1738.5,1021.5 1696.5,1021.5C 1696.5,1232.17 1696.5,1442.83 1696.5,1653.5C 1612.17,1653.5 1527.83,1653.5 1443.5,1653.5C 1443.5,2152.5 1443.5,2651.5 1443.5,3150.5C 1389.83,3150.5 1336.17,3150.5 1282.5,3150.5C 1282.5,3030.17 1282.5,2909.83 1282.5,2789.5C 1083.17,2789.5 883.833,2789.5 684.5,2789.5C 684.5,2909.83 684.5,3030.17 684.5,3150.5C 630.833,3150.5 577.167,3150.5 523.5,3150.5C 523.5,2988.17 523.5,2825.83 523.5,2663.5C 439.167,2663.5 354.833,2663.5 270.5,2663.5C 270.5,2399.5 270.5,2135.5 270.5,1871.5C 312.833,1871.5 355.167,1871.5 397.5,1871.5C 397.5,1829.5 397.5,1787.5 397.5,1745.5C 439.5,1745.5 481.5,1745.5 523.5,1745.5C 523.5,1630.5 523.5,1515.5 523.5,1400.5C 481.5,1400.5 439.5,1400.5 397.5,1400.5C 397.5,1358.17 397.5,1315.83 397.5,1273.5C 313.167,1273.5 228.833,1273.5 144.5,1273.5C 144.5,1231.5 144.5,1189.5 144.5,1147.5C 102.5,1147.5 60.5,1147.5 18.5,1147.5C 18.1085,1052.5 17.7752,957.5 17.5,862.5C 91.8333,862.5 166.167,862.5 240.5,862.5C 240.5,652.167 240.5,441.833 240.5,231.5C 493.5,231.5 746.5,231.5 999.5,231.5C 999.833,189.5 1000.17,147.5 1000.5,105.5 Z"/></g>
<g><path style="opacity:1" fill="#bcbdbc" d="M 1805.5,879.5 C 1753.17,879.5 1700.83,879.5 1648.5,879.5C 1648.5,837.5 1648.5,795.5 1648.5,753.5C 1479.83,753.5 1311.17,753.5 1142.5,753.5C 1142.5,795.5 1142.5,837.5 1142.5,879.5C 1068.5,879.5 994.5,879.5 920.5,879.5C 793.833,879.5 667.167,879.5 540.5,879.5C 540.5,963.5 540.5,1047.5 540.5,1131.5C 498.5,1131.5 456.5,1131.5 414.5,1131.5C 414.5,1173.5 414.5,1215.5 414.5,1257.5C 330.167,1257.5 245.833,1257.5 161.5,1257.5C 161.5,1215.5 161.5,1173.5 161.5,1131.5C 119.5,1131.5 77.5,1131.5 35.5,1131.5C 35.1667,1047.5 34.8333,963.5 34.5,879.5C 108.833,879.5 183.167,879.5 257.5,879.5C 257.5,669.167 257.5,458.833 257.5,248.5C 510.5,248.5 763.5,248.5 1016.5,248.5C 1016.5,206.5 1016.5,164.5 1016.5,122.5C 1311.5,122.5 1606.5,122.5 1901.5,122.5C 1901.5,374.833 1901.5,627.167 1901.5,879.5C 1869.5,879.5 1837.5,879.5 1805.5,879.5 Z"/></g>
<g><path style="opacity:1" fill="#fecdd1" d="M 1648.5,879.5 C 1616.5,879.5 1584.5,879.5 1552.5,879.5C 1552.5,921.167 1552.5,962.833 1552.5,1004.5C 1594.83,1004.5 1637.17,1004.5 1679.5,1004.5C 1679.5,1046.83 1679.5,1089.17 1679.5,1131.5C 1637.17,1131.5 1594.83,1131.5 1552.5,1131.5C 1552.5,1173.5 1552.5,1215.5 1552.5,1257.5C 1594.83,1257.5 1637.17,1257.5 1679.5,1257.5C 1679.5,1383.83 1679.5,1510.17 1679.5,1636.5C 1595.17,1636.5 1510.83,1636.5 1426.5,1636.5C 1342.17,1636.5 1257.83,1636.5 1173.5,1636.5C 1173.5,1678.5 1173.5,1720.5 1173.5,1762.5C 1089.17,1762.5 1004.83,1762.5 920.5,1762.5C 920.5,1720.5 920.5,1678.5 920.5,1636.5C 793.833,1636.5 667.167,1636.5 540.5,1636.5C 540.5,1552.17 540.5,1467.83 540.5,1383.5C 498.5,1383.5 456.5,1383.5 414.5,1383.5C 414.5,1341.5 414.5,1299.5 414.5,1257.5C 414.5,1215.5 414.5,1173.5 414.5,1131.5C 456.5,1131.5 498.5,1131.5 540.5,1131.5C 540.5,1047.5 540.5,963.5 540.5,879.5C 667.167,879.5 793.833,879.5 920.5,879.5C 920.5,921.167 920.5,962.833 920.5,1004.5C 1046.83,1004.5 1173.17,1004.5 1299.5,1004.5C 1299.5,962.833 1299.5,921.167 1299.5,879.5C 1247.17,879.5 1194.83,879.5 1142.5,879.5C 1142.5,837.5 1142.5,795.5 1142.5,753.5C 1311.17,753.5 1479.83,753.5 1648.5,753.5C 1648.5,795.5 1648.5,837.5 1648.5,879.5 Z"/></g>
<g><path style="opacity:1" fill="#fecdd1" d="M 414.5,1131.5 C 372.167,1131.5 329.833,1131.5 287.5,1131.5C 287.5,1047.5 287.5,963.5 287.5,879.5C 329.833,879.5 372.167,879.5 414.5,879.5C 414.5,963.5 414.5,1047.5 414.5,1131.5 Z"/></g>
<g><path style="opacity:1" fill="#9d9e9d" d="M 920.5,879.5 C 994.5,879.5 1068.5,879.5 1142.5,879.5C 1194.83,879.5 1247.17,879.5 1299.5,879.5C 1299.5,921.167 1299.5,962.833 1299.5,1004.5C 1173.17,1004.5 1046.83,1004.5 920.5,1004.5C 920.5,962.833 920.5,921.167 920.5,879.5 Z"/></g>
<g><path style="opacity:1" fill="#9d9e9d" d="M 1648.5,879.5 C 1700.83,879.5 1753.17,879.5 1805.5,879.5C 1805.5,921.167 1805.5,962.833 1805.5,1004.5C 1763.5,1004.5 1721.5,1004.5 1679.5,1004.5C 1637.17,1004.5 1594.83,1004.5 1552.5,1004.5C 1552.5,962.833 1552.5,921.167 1552.5,879.5C 1584.5,879.5 1616.5,879.5 1648.5,879.5 Z"/></g>
<g><path style="opacity:1" fill="#202120" d="M 1046.5,1131.5 C 1130.83,1131.5 1215.17,1131.5 1299.5,1131.5C 1299.5,1173.5 1299.5,1215.5 1299.5,1257.5C 1215.17,1257.5 1130.83,1257.5 1046.5,1257.5C 1046.5,1215.5 1046.5,1173.5 1046.5,1131.5 Z"/></g>
<g><path style="opacity:1" fill="#202120" d="M 1679.5,1131.5 C 1679.5,1173.5 1679.5,1215.5 1679.5,1257.5C 1637.17,1257.5 1594.83,1257.5 1552.5,1257.5C 1552.5,1215.5 1552.5,1173.5 1552.5,1131.5C 1594.83,1131.5 1637.17,1131.5 1679.5,1131.5 Z"/></g>
<g><path style="opacity:1" fill="#f4f5f4" d="M 540.5,1636.5 C 667.167,1636.5 793.833,1636.5 920.5,1636.5C 920.5,1678.5 920.5,1720.5 920.5,1762.5C 836.167,1762.5 751.833,1762.5 667.5,1762.5C 625.167,1762.5 582.833,1762.5 540.5,1762.5C 540.5,1720.5 540.5,1678.5 540.5,1636.5 Z"/></g>
<g><path style="opacity:1" fill="#f4f5f4" d="M 1426.5,1636.5 C 1426.5,1678.5 1426.5,1720.5 1426.5,1762.5C 1342.17,1762.5 1257.83,1762.5 1173.5,1762.5C 1173.5,1720.5 1173.5,1678.5 1173.5,1636.5C 1257.83,1636.5 1342.17,1636.5 1426.5,1636.5 Z"/></g>
<g><path style="opacity:1" fill="#747574" d="M 540.5,1762.5 C 540.5,2015.17 540.5,2267.83 540.5,2520.5C 456.167,2520.5 371.833,2520.5 287.5,2520.5C 287.5,2309.83 287.5,2099.17 287.5,1888.5C 329.833,1888.5 372.167,1888.5 414.5,1888.5C 414.5,1846.5 414.5,1804.5 414.5,1762.5C 456.5,1762.5 498.5,1762.5 540.5,1762.5 Z"/></g>
<g><path style="opacity:1" fill="#606160" d="M 540.5,1762.5 C 582.833,1762.5 625.167,1762.5 667.5,1762.5C 667.5,1804.5 667.5,1846.5 667.5,1888.5C 667.5,1930.83 667.5,1973.17 667.5,2015.5C 709.5,2015.5 751.5,2015.5 793.5,2015.5C 793.5,2057.5 793.5,2099.5 793.5,2141.5C 835.833,2141.5 878.167,2141.5 920.5,2141.5C 920.5,2183.5 920.5,2225.5 920.5,2267.5C 962.5,2267.5 1004.5,2267.5 1046.5,2267.5C 1046.5,2309.5 1046.5,2351.5 1046.5,2393.5C 1088.83,2393.5 1131.17,2393.5 1173.5,2393.5C 1173.5,2309.5 1173.5,2225.5 1173.5,2141.5C 1215.5,2141.5 1257.5,2141.5 1299.5,2141.5C 1299.5,2099.5 1299.5,2057.5 1299.5,2015.5C 1341.83,2015.5 1384.17,2015.5 1426.5,2015.5C 1426.5,2183.83 1426.5,2352.17 1426.5,2520.5C 1131.17,2520.5 835.833,2520.5 540.5,2520.5C 540.5,2267.83 540.5,2015.17 540.5,1762.5 Z"/></g>
<g><path style="opacity:1" fill="#202120" d="M 667.5,1762.5 C 751.833,1762.5 836.167,1762.5 920.5,1762.5C 1004.83,1762.5 1089.17,1762.5 1173.5,1762.5C 1257.83,1762.5 1342.17,1762.5 1426.5,1762.5C 1426.5,1804.5 1426.5,1846.5 1426.5,1888.5C 1384.17,1888.5 1341.83,1888.5 1299.5,1888.5C 1257.5,1888.5 1215.5,1888.5 1173.5,1888.5C 1173.5,1930.83 1173.5,1973.17 1173.5,2015.5C 1089.17,2015.5 1004.83,2015.5 920.5,2015.5C 920.5,1973.17 920.5,1930.83 920.5,1888.5C 878.167,1888.5 835.833,1888.5 793.5,1888.5C 751.5,1888.5 709.5,1888.5 667.5,1888.5C 667.5,1846.5 667.5,1804.5 667.5,1762.5 Z"/></g>
<g><path style="opacity:1" fill="#414241" d="M 667.5,1888.5 C 709.5,1888.5 751.5,1888.5 793.5,1888.5C 793.5,1930.83 793.5,1973.17 793.5,2015.5C 751.5,2015.5 709.5,2015.5 667.5,2015.5C 667.5,1973.17 667.5,1930.83 667.5,1888.5 Z"/></g>
<g><path style="opacity:1" fill="#f4f5f4" d="M 793.5,1888.5 C 835.833,1888.5 878.167,1888.5 920.5,1888.5C 920.5,1930.83 920.5,1973.17 920.5,2015.5C 878.167,2015.5 835.833,2015.5 793.5,2015.5C 793.5,1973.17 793.5,1930.83 793.5,1888.5 Z"/></g>
<g><path style="opacity:1" fill="#f4f5f4" d="M 1299.5,1888.5 C 1299.5,1930.83 1299.5,1973.17 1299.5,2015.5C 1257.5,2015.5 1215.5,2015.5 1173.5,2015.5C 1173.5,1973.17 1173.5,1930.83 1173.5,1888.5C 1215.5,1888.5 1257.5,1888.5 1299.5,1888.5 Z"/></g>
<g><path style="opacity:1" fill="#414241" d="M 1299.5,1888.5 C 1341.83,1888.5 1384.17,1888.5 1426.5,1888.5C 1426.5,1930.83 1426.5,1973.17 1426.5,2015.5C 1384.17,2015.5 1341.83,2015.5 1299.5,2015.5C 1299.5,1973.17 1299.5,1930.83 1299.5,1888.5 Z"/></g>
<g><path style="opacity:1" fill="#414241" d="M 793.5,2015.5 C 835.833,2015.5 878.167,2015.5 920.5,2015.5C 920.5,2057.5 920.5,2099.5 920.5,2141.5C 878.167,2141.5 835.833,2141.5 793.5,2141.5C 793.5,2099.5 793.5,2057.5 793.5,2015.5 Z"/></g>
<g><path style="opacity:1" fill="#f4f5f4" d="M 920.5,2015.5 C 1004.83,2015.5 1089.17,2015.5 1173.5,2015.5C 1173.5,2057.5 1173.5,2099.5 1173.5,2141.5C 1089.17,2141.5 1004.83,2141.5 920.5,2141.5C 920.5,2099.5 920.5,2057.5 920.5,2015.5 Z"/></g>
<g><path style="opacity:1" fill="#414241" d="M 1173.5,2015.5 C 1215.5,2015.5 1257.5,2015.5 1299.5,2015.5C 1299.5,2057.5 1299.5,2099.5 1299.5,2141.5C 1257.5,2141.5 1215.5,2141.5 1173.5,2141.5C 1173.5,2099.5 1173.5,2057.5 1173.5,2015.5 Z"/></g>
<g><path style="opacity:1" fill="#414241" d="M 920.5,2141.5 C 1004.83,2141.5 1089.17,2141.5 1173.5,2141.5C 1173.5,2225.5 1173.5,2309.5 1173.5,2393.5C 1131.17,2393.5 1088.83,2393.5 1046.5,2393.5C 1046.5,2351.5 1046.5,2309.5 1046.5,2267.5C 1004.5,2267.5 962.5,2267.5 920.5,2267.5C 920.5,2225.5 920.5,2183.5 920.5,2141.5 Z"/></g>
<g><path style="opacity:1" fill="#fecdd1" d="M 287.5,2520.5 C 371.833,2520.5 456.167,2520.5 540.5,2520.5C 540.5,2562.5 540.5,2604.5 540.5,2646.5C 456.167,2646.5 371.833,2646.5 287.5,2646.5C 287.5,2604.5 287.5,2562.5 287.5,2520.5 Z"/></g>
<g><path style="opacity:1" fill="#414241" d="M 540.5,2520.5 C 835.833,2520.5 1131.17,2520.5 1426.5,2520.5C 1426.5,2683.17 1426.5,2845.83 1426.5,3008.5C 1384.17,3008.5 1341.83,3008.5 1299.5,3008.5C 1299.5,2929.83 1299.5,2851.17 1299.5,2772.5C 1088.83,2772.5 878.167,2772.5 667.5,2772.5C 667.17,2850.9 667.503,2929.24 668.5,3007.5C 626.167,3007.5 583.833,3007.5 541.5,3007.5C 540.502,2887.24 540.169,2766.9 540.5,2646.5C 540.5,2604.5 540.5,2562.5 540.5,2520.5 Z"/></g>
<g><path style="opacity:1" fill="#202120" d="M 541.5,3007.5 C 583.833,3007.5 626.167,3007.5 668.5,3007.5C 668.5,3049.5 668.5,3091.5 668.5,3133.5C 626.167,3133.5 583.833,3133.5 541.5,3133.5C 541.5,3091.5 541.5,3049.5 541.5,3007.5 Z"/></g>
<g><path style="opacity:1" fill="#202120" d="M 1299.5,3008.5 C 1341.83,3008.5 1384.17,3008.5 1426.5,3008.5C 1426.5,3050.5 1426.5,3092.5 1426.5,3134.5C 1384.17,3134.5 1341.83,3134.5 1299.5,3134.5C 1299.5,3092.5 1299.5,3050.5 1299.5,3008.5 Z"/></g>
</svg>
