<svg id="Livello_1" data-name="Livello 1" xmlns="http://www.w3.org/2000/svg" viewBox="0 0 390.92 73.94"><path d="M0,73.94V0H390.92V73.94ZM347.45,22.52l.14,0c.09.13.2.26.28.4l8.2,14.39c.7,1.24,1.42,2.48,2.14,3.72a2.8,2.8,0,0,0,2.71,1.52c.33,0,.67,0,1,0a2.87,2.87,0,0,0,2.74-2.18,9,9,0,0,0,.28-2.19q0-11.28,0-22.55a7.73,7.73,0,0,0-.15-1.44,2.44,2.44,0,0,0-1.56-1.94,2.86,2.86,0,0,0-4.07,2.28,4.83,4.83,0,0,0,0,.76V31.83c0,.26,0,.52,0,.78l-.16,0c-.34-.6-.68-1.19-1-1.79-3.13-5.59-6.27-11.18-9.37-16.79a3.54,3.54,0,0,0-3.7-2c-1.69.16-2.61.69-3.07,2.29a4.74,4.74,0,0,0-.17,1.36q0,11.53,0,23.08c0,.33,0,.67,0,1a2.67,2.67,0,0,0,1.83,2.65,3.57,3.57,0,0,0,2.26-.06,2.14,2.14,0,0,0,1.43-1.49,8.21,8.21,0,0,0,.28-2c0-5.19,0-10.38,0-15.57Zm-60,0,.17,0c.11.17.23.33.33.5l7.66,13.45c.92,1.6,1.79,3.22,2.77,4.77s4,1.91,5.39.66l.11-.11a3.91,3.91,0,0,0,1.07-3q0-11.81,0-23.62a2.38,2.38,0,0,0,0-.38c-.22-1.77-1.07-2.52-2.46-2.67a2.67,2.67,0,0,0-3.25,2.61c0,.48-.09,1-.09,1.45q0,7.82,0,15.64v.81a1,1,0,0,1-.44-.45c-3.38-6-6.78-12.07-10.12-18.13a3.57,3.57,0,0,0-3.9-1.92,2.93,2.93,0,0,0-2.87,2.52,9.27,9.27,0,0,0-.17,1.67q0,11.39,0,22.77a7.08,7.08,0,0,0,.16,1.45,2.48,2.48,0,0,0,2.57,2.07H285A2.34,2.34,0,0,0,287.13,41a4.62,4.62,0,0,0,.28-1.56c0-5.37,0-10.74,0-16.11ZM140.48,30.61a3.05,3.05,0,0,1,.35-.05c2.09,0,4.19,0,6.29,0a5.07,5.07,0,0,1,1.27.23,3.25,3.25,0,0,1,2.2,2.54,18.5,18.5,0,0,1,.46,4.32,9.33,9.33,0,0,0,.22,2.05,3.33,3.33,0,0,0,3.78,2.82c1.31-.1,2.71-1.29,2.53-2.66a15.89,15.89,0,0,0-.26-1.66,19.25,19.25,0,0,1-.53-4.08,17.69,17.69,0,0,0-.18-2.52,3.93,3.93,0,0,0-2.78-3.5l-.81-.26a6.21,6.21,0,0,0,2.44-1.41,8.14,8.14,0,0,0,2.17-7.19,7,7,0,0,0-3.71-5.5,10,10,0,0,0-4.72-1.16c-1.64,0-3.28,0-4.91,0-2.28,0-4.56,0-6.83,0a2.87,2.87,0,0,0-3,2.41,5.47,5.47,0,0,0-.13,1.21q0,11.51,0,23a4.74,4.74,0,0,0,.05.84,2.77,2.77,0,0,0,2.11,2.38,3,3,0,0,0,3.28-.93,3.46,3.46,0,0,0,.73-2.28V30.61ZM132.4,26.9a17.53,17.53,0,0,0-1.26-7,12.23,12.23,0,0,0-8-7.4,15.81,15.81,0,0,0-7.73-.36,12.22,12.22,0,0,0-9.2,7.21A17.31,17.31,0,0,0,104.71,26a21.77,21.77,0,0,0,1.11,8.21,11.76,11.76,0,0,0,8.06,7.87,16.2,16.2,0,0,0,7.26.4,12.34,12.34,0,0,0,9.56-7.33A18.52,18.52,0,0,0,132.4,26.9Zm69.89-15.06a14,14,0,0,0-5.53,1.08,8.19,8.19,0,0,0-4.56,4.3,9.48,9.48,0,0,0-.63,5.1,6.85,6.85,0,0,0,3.22,5.14,11.74,11.74,0,0,0,3.3,1.41l5.61,1.54c.79.22,1.58.43,2.34.72a2.93,2.93,0,0,1,1.75,3.7,3.63,3.63,0,0,1-2.31,2.49,7.5,7.5,0,0,1-5.68-.06A6.73,6.73,0,0,1,197,34.73a13.36,13.36,0,0,0-1.14-1.44,2.45,2.45,0,0,0-2.75-.62A2.5,2.5,0,0,0,191.42,35a4.89,4.89,0,0,0,.68,2.79,9,9,0,0,0,4.84,3.91,16.68,16.68,0,0,0,6.53,1,15.42,15.42,0,0,0,4.23-.64,8.7,8.7,0,0,0,5.64-4.71,9.55,9.55,0,0,0,.6-6,7.38,7.38,0,0,0-2.11-3.91A10,10,0,0,0,207.19,25c-1.9-.49-3.82-.9-5.72-1.41a13.57,13.57,0,0,1-2.65-1,2.4,2.4,0,0,1-1.28-2.91,3,3,0,0,1,1.9-2.25,7.56,7.56,0,0,1,5.46,0,6.85,6.85,0,0,1,2.82,2.29,7.17,7.17,0,0,0,1.12,1.15,2.52,2.52,0,0,0,2.75.12A2.35,2.35,0,0,0,213,18.84,4.75,4.75,0,0,0,211.12,15,13.46,13.46,0,0,0,202.29,11.84Zm62,17.64h10.13a6.37,6.37,0,0,0,1.44-.17,1.8,1.8,0,0,0,1.38-1.3,4.18,4.18,0,0,0,.11-1.73,2.17,2.17,0,0,0-2.25-1.88c-.16,0-.31,0-.46,0h-9.52l-.82,0V17.93h.87c3.63,0,7.26,0,10.9,0a5.69,5.69,0,0,0,1.57-.27A1.88,1.88,0,0,0,279,16.1a2.75,2.75,0,0,0,.11-.68,2.66,2.66,0,0,0-.9-2.33,2.74,2.74,0,0,0-1.73-.52h-15a2.92,2.92,0,0,0-3.11,2.76c-.07.63-.11,1.27-.12,1.9V37.17a18.81,18.81,0,0,0,.11,2A3,3,0,0,0,261.57,42h15a4.54,4.54,0,0,0,1.21-.18,2.1,2.1,0,0,0,1.52-2.22c0-1.58-.4-2.38-1.46-2.73a7,7,0,0,0-1.13-.21c-.2,0-.41,0-.61,0H264.32ZM84,27.42c0-.23,0-.46,0-.69a12.09,12.09,0,0,1,1.64-6.06,7,7,0,0,1,7.63-3.29,5.6,5.6,0,0,1,3.48,2.45c.4.57.79,1.14,1.23,1.67a3.22,3.22,0,0,0,3.64.83,2.74,2.74,0,0,0,1.62-2.87,5,5,0,0,0-.9-2.56,10.87,10.87,0,0,0-5.54-4.17A15.59,15.59,0,0,0,89.61,12a13,13,0,0,0-5.55,1.86,13.33,13.33,0,0,0-5.86,8,18.72,18.72,0,0,0-.73,7,23.82,23.82,0,0,0,.69,4.37A12,12,0,0,0,87,42.12a18,18,0,0,0,5.53.56,12.61,12.61,0,0,0,8.16-3.24,7.13,7.13,0,0,0,2.57-4.81,2.4,2.4,0,0,0-1.53-2.58,2.78,2.78,0,0,0-3.28.31,12.08,12.08,0,0,0-1.09,1.28c-.49.62-.93,1.29-1.44,1.89a4.69,4.69,0,0,1-2.7,1.65,7,7,0,0,1-8.13-4.08A14.17,14.17,0,0,1,84,27.42Zm82.93-9.3v1q0,9.7,0,19.4a8.59,8.59,0,0,0,.13,1.52,3.06,3.06,0,0,0,5.8.69,4.92,4.92,0,0,0,.32-1.78c0-6.63,0-13.25,0-19.87v-.94l.82,0h5.07c.23,0,.46,0,.69,0a2.75,2.75,0,0,0,2.53-2.38,2.64,2.64,0,0,0-2.09-3,4.21,4.21,0,0,0-1.06-.12H161a3.53,3.53,0,0,0-.46,0A2.82,2.82,0,0,0,158,14.39a2.76,2.76,0,0,0,2.7,3.73c1.54,0,3.07,0,4.61,0Zm154.44,0h1c1.72,0,3.43,0,5.14,0a2.69,2.69,0,0,0,2.68-2.28,2.64,2.64,0,0,0-2-3.12,4.27,4.27,0,0,0-1.13-.14h-18a2.82,2.82,0,0,0-2.49,1.76,2.76,2.76,0,0,0,2.63,3.78c1.79,0,3.58,0,5.37,0,.22,0,.45,0,.73,0v21c0,.2,0,.41,0,.61a2.93,2.93,0,0,0,2.52,2.77,2.84,2.84,0,0,0,3.32-2.26,8.51,8.51,0,0,0,.17-1.82q0-9.66,0-19.32Zm-78.1,18.29v-.9q0-10.08,0-20.17a4.59,4.59,0,0,0-.05-.91A2.76,2.76,0,0,0,241,12.1a2.83,2.83,0,0,0-3.08,1,3.33,3.33,0,0,0-.64,2.15q0,11.58,0,23.17a4.73,4.73,0,0,0,0,.53,3,3,0,0,0,3.27,3c4.33,0,8.65,0,13,0a3.9,3.9,0,0,0,1.47-.34,2.73,2.73,0,0,0,0-4.89,4.52,4.52,0,0,0-1.63-.34c-3.07,0-6.14,0-9.21,0Zm-59.51-9.15c0,4,0,8,0,12,0,.18,0,.36,0,.54a2.92,2.92,0,0,0,2.3,2.72c1.48.21,2.63,0,3.47-1.48a3.63,3.63,0,0,0,.41-1.84q0-11.88,0-23.76c0-.13,0-.25,0-.38a3.08,3.08,0,0,0-4-2.89,3,3,0,0,0-2.2,3Q183.74,21.21,183.74,27.26Zm185,0c0,3.92,0,7.83,0,11.74A5.49,5.49,0,0,0,369,40.5a2.63,2.63,0,0,0,2.13,2,2.89,2.89,0,0,0,3-1,3.58,3.58,0,0,0,.67-2.23q0-11.9,0-23.78a5.25,5.25,0,0,0-.19-1.36,2.83,2.83,0,0,0-2.52-2,2.86,2.86,0,0,0-2.91,1.57,4.31,4.31,0,0,0-.39,2Zm-37,0c0,3.91,0,7.83,0,11.74a5.5,5.5,0,0,0,.2,1.51,2.6,2.6,0,0,0,2.13,2,2.86,2.86,0,0,0,3-1,3.58,3.58,0,0,0,.67-2.23q0-11.93,0-23.86a5.15,5.15,0,0,0-.22-1.35,3,3,0,0,0-5.44-.34,4.28,4.28,0,0,0-.36,1.87C331.77,19.43,331.76,23.34,331.76,27.25Zm-274.31-15V.91C56.51.73,46.56.78,46,1c-.14,1.27-.08,10.76.08,11.29Zm0,3.88H46.09c-.18.79-.14,10.8,0,11.39H57.46ZM301.16,58c.15-.94.12-10.88,0-11.43H289.82c-.15,1-.11,10.86.05,11.43Zm19.12-11.44V57.93h11.4c.15-1.18.1-10.88-.06-11.42Zm15.26,0V57.94H346.9c.15-.88.12-10.86,0-11.41Zm26.61,11.41V46.55c-1.23-.16-10.91-.1-11.4.07V57.94ZM27,16.15H15.55V27.49c1.05.15,10.9.11,11.44,0ZM42.17,27.53V16.14H30.77V27.53ZM366,46.51c-.16,1.28-.11,10.91.06,11.43H377.4V46.51ZM346.9,73.15c.16-.91.12-10.85,0-11.4H335.54v11.4ZM15.52,42.7c1,.15,10.92.11,11.45,0V31.36c-1.07-.14-10.89-.1-11.45.05ZM.34,46.51c-.15,1.2-.1,10.9.06,11.42H11.7c.15-1.15.1-10.88-.06-11.42ZM26.93,58c.16-1.05.11-10.9,0-11.43H15.58c-.15,1-.11,10.88.05,11.43Zm49.6-11.43c-.16,1.25-.1,10.89,0,11.4H87.93V46.53Zm26.61,11.41V46.54H91.71v11.4Zm30.5-11.42H122.26c-.15.88-.12,10.85,0,11.42h11.35Zm3.84,0c-.16,1.32-.1,10.89.06,11.39h11.34V46.53Zm15.2,0V57.94h11.4V46.52Zm26.64,11.41V46.54c-1.4-.14-10.88-.09-11.44.06V57.93Zm19.09-11.42c-.17,1.3-.1,10.91.06,11.42,1.57.15,10.85.08,11.36-.08V46.51Zm26.65,0H213.63V57.92h11.43Zm3.78,11.34c.94.17,10.88.13,11.4,0V46.53h-11.4Zm30.53-11.37c-.15,1.13-.1,10.88.05,11.42h11.29c.16-1,.12-10.87,0-11.42Zm15.18,11.4c1.3.16,10.95.1,11.43-.06V46.55c-1.25-.16-10.91-.1-11.43.07ZM72.65,16.14H61.27V27.53H72.6C72.76,26.93,72.79,17.17,72.65,16.14ZM61.26,57.92H72.67V46.52H61.26Zm0-15.2c1.35.14,10.83.09,11.41-.07V31.33H61.27Zm194.26,3.81H244.16c-.16.93-.12,10.87.05,11.4,1.48.15,10.77.08,11.32-.09Zm49.54,0V57.93h11.38V46.52Zm-186.69,0H107.05c-.16.94-.12,10.87,0,11.41h11.29Zm64.79,0V57.93h11.38V46.52Zm37.1-5a2,2,0,0,0,1.64-1.31c.74-1.65,1.5-3.3,2.25-5l6.13-13.53c.64-1.42,1.28-2.84,1.89-4.27a1.55,1.55,0,0,0-.34-1.89,1.8,1.8,0,0,0-2-.38,2.35,2.35,0,0,0-1.32,1.5q-4.49,9.9-9,19.81c-.4.88-.83,1.75-1.17,2.66C217.92,40.43,218.73,41.55,220.27,41.55Zm163.63-19a4.92,4.92,0,1,0-5-4.64A5,5,0,0,0,383.9,22.57Z" fill="#fefffe00"/><path d="M347.45,22.52v.8c0,5.19,0,10.38,0,15.57a8.21,8.21,0,0,1-.28,2,2.14,2.14,0,0,1-1.43,1.49,3.57,3.57,0,0,1-2.26.06,2.67,2.67,0,0,1-1.83-2.65c0-.33,0-.67,0-1q0-11.54,0-23.08a4.74,4.74,0,0,1,.17-1.36c.46-1.6,1.38-2.13,3.07-2.29a3.54,3.54,0,0,1,3.7,2c3.1,5.61,6.24,11.2,9.37,16.79.33.6.67,1.19,1,1.79l.16,0c0-.26,0-.52,0-.78V15.26a4.83,4.83,0,0,1,0-.76,2.86,2.86,0,0,1,4.07-2.28,2.44,2.44,0,0,1,1.56,1.94A7.73,7.73,0,0,1,365,15.6q0,11.27,0,22.55a9,9,0,0,1-.28,2.19,2.87,2.87,0,0,1-2.74,2.18c-.33,0-.67,0-1,0A2.8,2.8,0,0,1,358.21,41c-.72-1.24-1.44-2.48-2.14-3.72l-8.2-14.39c-.08-.14-.19-.27-.28-.4Z" fill="#6f6f6f"/><path d="M287.42,22.48v.82c0,5.37,0,10.74,0,16.11a4.62,4.62,0,0,1-.28,1.56A2.34,2.34,0,0,1,285,42.52h-.61a2.48,2.48,0,0,1-2.57-2.07,7.08,7.08,0,0,1-.16-1.45q0-11.38,0-22.77a9.27,9.27,0,0,1,.17-1.67A2.93,2.93,0,0,1,284.65,12a3.57,3.57,0,0,1,3.9,1.92c3.34,6.06,6.74,12.09,10.12,18.13a1,1,0,0,0,.44.45v-.81q0-7.82,0-15.64c0-.49.05-1,.09-1.45A2.67,2.67,0,0,1,302.46,12c1.39.15,2.24.9,2.46,2.67a2.38,2.38,0,0,1,0,.38q0,11.8,0,23.62a3.91,3.91,0,0,1-1.07,3l-.11.11c-1.41,1.25-4.39.92-5.39-.66s-1.85-3.17-2.77-4.77l-7.66-13.45c-.1-.17-.22-.33-.33-.5Z" fill="#6f6f6f"/><path d="M140.48,30.61v8.61a3.46,3.46,0,0,1-.73,2.28,3,3,0,0,1-3.28.93,2.77,2.77,0,0,1-2.11-2.38,4.74,4.74,0,0,1-.05-.84q0-11.51,0-23a5.47,5.47,0,0,1,.13-1.21,2.87,2.87,0,0,1,3-2.41c2.27,0,4.55,0,6.83,0,1.63,0,3.27,0,4.91,0a10,10,0,0,1,4.72,1.16,7,7,0,0,1,3.71,5.5,8.14,8.14,0,0,1-2.17,7.19A6.21,6.21,0,0,1,153,27.84l.81.26a3.93,3.93,0,0,1,2.78,3.5,17.69,17.69,0,0,1,.18,2.52,19.25,19.25,0,0,0,.53,4.08,15.89,15.89,0,0,1,.26,1.66c.18,1.37-1.22,2.56-2.53,2.66a3.33,3.33,0,0,1-3.78-2.82,9.33,9.33,0,0,1-.22-2.05,18.5,18.5,0,0,0-.46-4.32,3.25,3.25,0,0,0-2.2-2.54,5.07,5.07,0,0,0-1.27-.23c-2.1,0-4.2,0-6.29,0A3.05,3.05,0,0,0,140.48,30.61Zm.05-12.91v7.92a3.51,3.51,0,0,0,.41,0c2,0,4,0,6.05,0a8.93,8.93,0,0,0,2.18-.34,2.89,2.89,0,0,0,2.2-2.41,7.65,7.65,0,0,0,0-2.34,2.93,2.93,0,0,0-2.6-2.72,7.74,7.74,0,0,0-1.59-.17q-3,0-6,0Z" fill="#6f6f6f"/><path d="M132.4,26.9a18.52,18.52,0,0,1-1.7,8.27,12.34,12.34,0,0,1-9.56,7.33,16.2,16.2,0,0,1-7.26-.4,11.76,11.76,0,0,1-8.06-7.87A21.77,21.77,0,0,1,104.71,26a17.31,17.31,0,0,1,1.51-6.68,12.22,12.22,0,0,1,9.2-7.21,15.81,15.81,0,0,1,7.73.36,12.23,12.23,0,0,1,8,7.4A17.53,17.53,0,0,1,132.4,26.9Zm-6.17,0a14.63,14.63,0,0,0-.81-4.9,6.82,6.82,0,0,0-5-4.6,8.06,8.06,0,0,0-3.49,0A6.59,6.59,0,0,0,113,19.72a9.38,9.38,0,0,0-1.8,4.17,17.53,17.53,0,0,0-.09,5.87,18.1,18.1,0,0,0,.68,2.89A6.66,6.66,0,0,0,114.08,36a7.57,7.57,0,0,0,5.46,1.28,6.29,6.29,0,0,0,4.19-2,8.55,8.55,0,0,0,1.87-3.48A18.48,18.48,0,0,0,126.23,26.91Z" fill="#6f6f6f"/><path d="M202.29,11.84A13.46,13.46,0,0,1,211.12,15,4.75,4.75,0,0,1,213,18.84,2.35,2.35,0,0,1,211.59,21a2.52,2.52,0,0,1-2.75-.12,7.17,7.17,0,0,1-1.12-1.15,6.85,6.85,0,0,0-2.82-2.29,7.56,7.56,0,0,0-5.46,0,3,3,0,0,0-1.9,2.25,2.4,2.4,0,0,0,1.28,2.91,13.57,13.57,0,0,0,2.65,1c1.9.51,3.82.92,5.72,1.41a10,10,0,0,1,4.64,2.42,7.38,7.38,0,0,1,2.11,3.91,9.55,9.55,0,0,1-.6,6,8.7,8.7,0,0,1-5.64,4.71,15.42,15.42,0,0,1-4.23.64,16.68,16.68,0,0,1-6.53-1,9,9,0,0,1-4.84-3.91,4.89,4.89,0,0,1-.68-2.79,2.5,2.5,0,0,1,1.68-2.35,2.45,2.45,0,0,1,2.75.62A13.36,13.36,0,0,1,197,34.73a6.73,6.73,0,0,0,2.81,2.53,7.5,7.5,0,0,0,5.68.06,3.63,3.63,0,0,0,2.31-2.49,2.93,2.93,0,0,0-1.75-3.7c-.76-.29-1.55-.5-2.34-.72l-5.61-1.54a11.74,11.74,0,0,1-3.3-1.41,6.85,6.85,0,0,1-3.22-5.14,9.48,9.48,0,0,1,.63-5.1,8.19,8.19,0,0,1,4.56-4.3A14,14,0,0,1,202.29,11.84Z" fill="#6f6f6f"/><path d="M264.32,29.48v7.18h11.82c.2,0,.41,0,.61,0a7,7,0,0,1,1.13.21c1.06.35,1.48,1.15,1.46,2.73a2.1,2.1,0,0,1-1.52,2.22,4.54,4.54,0,0,1-1.21.18h-15a3,3,0,0,1-3.19-2.85,18.81,18.81,0,0,1-.11-2V17.23c0-.63.05-1.27.12-1.9a2.92,2.92,0,0,1,3.11-2.76h15a2.74,2.74,0,0,1,1.73.52,2.66,2.66,0,0,1,.9,2.33,2.75,2.75,0,0,1-.11.68,1.88,1.88,0,0,1-1.32,1.54,5.69,5.69,0,0,1-1.57.27c-3.64,0-7.27,0-10.9,0h-.87v6.42l.82,0h9.52c.15,0,.3,0,.46,0a2.17,2.17,0,0,1,2.25,1.88,4.18,4.18,0,0,1-.11,1.73,1.8,1.8,0,0,1-1.38,1.3,6.37,6.37,0,0,1-1.44.17H264.32Z" fill="#6f6f6f"/><path d="M84,27.42a14.17,14.17,0,0,0,1.07,5.68,7,7,0,0,0,8.13,4.08,4.69,4.69,0,0,0,2.7-1.65c.51-.6,1-1.27,1.44-1.89a12.08,12.08,0,0,1,1.09-1.28,2.78,2.78,0,0,1,3.28-.31,2.4,2.4,0,0,1,1.53,2.58,7.13,7.13,0,0,1-2.57,4.81,12.61,12.61,0,0,1-8.16,3.24A18,18,0,0,1,87,42.12a12,12,0,0,1-8.8-8.94,23.82,23.82,0,0,1-.69-4.37,18.72,18.72,0,0,1,.73-7,13.33,13.33,0,0,1,5.86-8A13,13,0,0,1,89.61,12a15.59,15.59,0,0,1,7.17.77,10.87,10.87,0,0,1,5.54,4.17,5,5,0,0,1,.9,2.56,2.74,2.74,0,0,1-1.62,2.87A3.22,3.22,0,0,1,98,21.5c-.44-.53-.83-1.1-1.23-1.67a5.6,5.6,0,0,0-3.48-2.45,7,7,0,0,0-7.63,3.29A12.09,12.09,0,0,0,84,26.73C84,27,84,27.19,84,27.42Z" fill="#6f6f6f"/><path d="M166.91,18.12h-1.63c-1.54,0-3.07,0-4.61,0a2.76,2.76,0,0,1-2.7-3.73,2.82,2.82,0,0,1,2.53-1.81,3.53,3.53,0,0,1,.46,0h18.19a4.21,4.21,0,0,1,1.06.12,2.64,2.64,0,0,1,2.09,3,2.75,2.75,0,0,1-2.53,2.38c-.23,0-.46,0-.69,0H174l-.82,0v.94c0,6.62,0,13.24,0,19.87a4.92,4.92,0,0,1-.32,1.78,3.06,3.06,0,0,1-5.8-.69,8.59,8.59,0,0,1-.13-1.52q0-9.69,0-19.4Z" fill="#6f6f6f"/><path d="M321.35,18.12v1q0,9.66,0,19.32a8.51,8.51,0,0,1-.17,1.82,2.84,2.84,0,0,1-3.32,2.26,2.93,2.93,0,0,1-2.52-2.77c0-.2,0-.41,0-.61v-21c-.28,0-.51,0-.73,0-1.79,0-3.58,0-5.37,0a2.76,2.76,0,0,1-2.63-3.78,2.82,2.82,0,0,1,2.49-1.76h18a4.27,4.27,0,0,1,1.13.14,2.64,2.64,0,0,1,2,3.12,2.69,2.69,0,0,1-2.68,2.28c-1.71,0-3.42,0-5.14,0Z" fill="#6f6f6f"/><path d="M243.25,36.41h.93c3.07,0,6.14,0,9.21,0a4.52,4.52,0,0,1,1.63.34,2.73,2.73,0,0,1,0,4.89,3.9,3.9,0,0,1-1.47.34c-4.32,0-8.64,0-13,0a3,3,0,0,1-3.27-3,4.73,4.73,0,0,1,0-.53q0-11.59,0-23.17a3.33,3.33,0,0,1,.64-2.15,2.83,2.83,0,0,1,3.08-1,2.76,2.76,0,0,1,2.16,2.33,4.59,4.59,0,0,1,.05.91q0,10.1,0,20.17Z" fill="#6f6f6f"/><path d="M183.74,27.26q0-6.06,0-12.11a3,3,0,0,1,2.2-3,3.08,3.08,0,0,1,4,2.89c0,.13,0,.25,0,.38q0,11.88,0,23.76a3.63,3.63,0,0,1-.41,1.84c-.84,1.48-2,1.69-3.47,1.48a2.92,2.92,0,0,1-2.3-2.72c0-.18,0-.36,0-.54C183.74,35.23,183.74,31.24,183.74,27.26Z" fill="#6f6f6f"/><path d="M368.77,27.25V15.59a4.31,4.31,0,0,1,.39-2A2.86,2.86,0,0,1,372.07,12a2.83,2.83,0,0,1,2.52,2,5.25,5.25,0,0,1,.19,1.36q0,11.88,0,23.78a3.58,3.58,0,0,1-.67,2.23,2.89,2.89,0,0,1-3,1,2.63,2.63,0,0,1-2.13-2,5.49,5.49,0,0,1-.19-1.51C368.76,35.08,368.77,31.17,368.77,27.25Z" fill="#6f6f6f"/><path d="M331.76,27.25c0-3.91,0-7.82,0-11.73a4.28,4.28,0,0,1,.36-1.87,3,3,0,0,1,5.44.34,5.15,5.15,0,0,1,.22,1.35q0,11.93,0,23.86a3.58,3.58,0,0,1-.67,2.23,2.86,2.86,0,0,1-3,1,2.6,2.6,0,0,1-2.13-2,5.5,5.5,0,0,1-.2-1.51C331.76,35.08,331.76,31.16,331.76,27.25Z" fill="#6f6f6f"/><path d="M57.45,12.25H46.11C46,11.72,45.89,2.23,46,1c.53-.18,10.48-.23,11.42,0Z" fill="#7ab91d"/><path d="M57.46,16.13V27.52H46.12c-.17-.59-.21-10.6,0-11.39Z" fill="#7ab91d"/><path d="M301.16,58H289.87c-.16-.57-.2-10.45-.05-11.43h11.31C301.28,47.07,301.31,57,301.16,58Z" fill="#7ab91e"/><path d="M320.28,46.51h11.34c.16.54.21,10.24.06,11.42h-11.4Z" fill="#7aba1e"/><path d="M335.54,46.53h11.33c.15.55.18,10.53,0,11.41H335.54Z" fill="#7ab91e"/><path d="M362.15,57.94h-11.4V46.62c.49-.17,10.17-.23,11.4-.07Z" fill="#7ab91e"/><path d="M27,16.15V27.44c-.54.16-10.39.2-11.44,0V16.15Z" fill="#7ab91e"/><path d="M42.17,27.53H30.77V16.14h11.4Z" fill="#7ab91e"/><path d="M366,46.51H377.4V57.94H366C365.87,57.42,365.82,47.79,366,46.51Z" fill="#7ab91e"/><path d="M346.9,73.15H335.54V61.75h11.33C347,62.3,347.06,72.24,346.9,73.15Z" fill="#7aba1e"/><path d="M15.52,42.7V31.41c.56-.15,10.38-.19,11.45-.05v11.3C26.44,42.81,16.56,42.85,15.52,42.7Z" fill="#7ab91e"/><path d="M.34,46.51h11.3c.16.54.21,10.27.06,11.42H.4C.24,57.41.19,47.71.34,46.51Z" fill="#7aba1e"/><path d="M26.93,58H15.63c-.16-.55-.2-10.4-.05-11.43H26.89C27,47.06,27.09,56.91,26.93,58Z" fill="#7ab91e"/><path d="M76.53,46.53h11.4v11.4H76.58C76.43,57.42,76.37,47.78,76.53,46.53Z" fill="#7ab91e"/><path d="M103.14,57.94H91.71V46.54h11.43Z" fill="#7ab91e"/><path d="M133.64,46.52V57.94H122.29c-.15-.57-.18-10.54,0-11.42Z" fill="#7aba1e"/><path d="M137.48,46.53h11.4V57.92H137.54C137.38,57.42,137.32,47.85,137.48,46.53Z" fill="#7ab91e"/><path d="M152.68,46.52h11.4V57.94h-11.4Z" fill="#7ab91e"/><path d="M179.32,57.93H167.88V46.6c.56-.15,10-.2,11.44-.06Z" fill="#7ab91e"/><path d="M198.41,46.51h11.42V57.85c-.51.16-9.79.23-11.36.08C198.31,57.42,198.24,47.81,198.41,46.51Z" fill="#7ab91d"/><path d="M225.06,46.54V57.92H213.63V46.54Z" fill="#7ab91e"/><path d="M228.84,57.88V46.53h11.4V57.85C239.72,58,229.78,58.05,228.84,57.88Z" fill="#7ab91e"/><path d="M259.37,46.51h11.29c.17.55.21,10.44,0,11.42H259.42C259.27,57.39,259.22,47.64,259.37,46.51Z" fill="#7aba1e"/><path d="M274.55,57.91V46.62c.52-.17,10.18-.23,11.43-.07v11.3C285.5,58,275.85,58.07,274.55,57.91Z" fill="#7ab91e"/><path d="M72.65,16.14c.14,1,.11,10.79-.05,11.39H61.27V16.14Z" fill="#7bba1f"/><path d="M61.26,57.92V46.52H72.67v11.4Z" fill="#7aba1e"/><path d="M61.27,42.72V31.33H72.68V42.65C72.1,42.81,62.62,42.86,61.27,42.72Z" fill="#7aba1e"/><path d="M255.53,46.53V57.84c-.55.17-9.84.24-11.32.09-.17-.53-.21-10.47-.05-11.4Z" fill="#7ab91d"/><path d="M305.07,46.52h11.38V57.93H305.07Z" fill="#7ab91d"/><path d="M118.38,46.52V57.93H107.09c-.16-.54-.2-10.47,0-11.41Z" fill="#7ab91d"/><path d="M183.17,46.52h11.38V57.93H183.17Z" fill="#7ab91d"/><path d="M220.27,41.55c-1.54,0-2.35-1.12-1.89-2.36.34-.91.77-1.78,1.17-2.66q4.48-9.91,9-19.81a2.35,2.35,0,0,1,1.32-1.5,1.8,1.8,0,0,1,2,.38,1.55,1.55,0,0,1,.34,1.89c-.61,1.43-1.25,2.85-1.89,4.27l-6.13,13.53c-.75,1.65-1.51,3.3-2.25,5A2,2,0,0,1,220.27,41.55Z" fill="#707070"/><path d="M383.9,22.57a4.92,4.92,0,1,1,4.93-5A5,5,0,0,1,383.9,22.57Zm4-4.92a4,4,0,1,0-8.06,0,4,4,0,1,0,8.06,0Z" fill="#767575"/><path d="M140.53,17.7l.7,0q3,0,6,0a7.74,7.74,0,0,1,1.59.17,2.93,2.93,0,0,1,2.6,2.72,7.65,7.65,0,0,1,0,2.34,2.89,2.89,0,0,1-2.2,2.41,8.93,8.93,0,0,1-2.18.34c-2,0-4,0-6.05,0a3.51,3.51,0,0,1-.41,0Z" fill="#fdfefe00"/><path d="M126.23,26.91a18.48,18.48,0,0,1-.63,4.9,8.55,8.55,0,0,1-1.87,3.48,6.29,6.29,0,0,1-4.19,2A7.57,7.57,0,0,1,114.08,36a6.66,6.66,0,0,1-2.32-3.35,18.1,18.1,0,0,1-.68-2.89,17.53,17.53,0,0,1,.09-5.87,9.38,9.38,0,0,1,1.8-4.17,6.59,6.59,0,0,1,3.93-2.35,8.06,8.06,0,0,1,3.49,0,6.82,6.82,0,0,1,5,4.6A14.63,14.63,0,0,1,126.23,26.91Z" fill="#fefefe00"/><path d="M387.85,17.65a4,4,0,1,1-8.06,0,4,4,0,1,1,8.06,0Zm-3.19.39c.28-.12.5-.19.7-.3.69-.35.73-1,.68-1.65a1.2,1.2,0,0,0-1-1.14,10.78,10.78,0,0,0-3.06-.13v5.66h.77V18h1c.4.66.82,1.3,1.19,2a.84.84,0,0,0,1.18.47Z" fill="#f8f9f900"/><path d="M384.66,18l1.51,2.4A.84.84,0,0,1,385,20c-.37-.67-.79-1.31-1.19-2h-1v2.48H382V14.82a10.78,10.78,0,0,1,3.06.13,1.2,1.2,0,0,1,1,1.14c0,.66,0,1.3-.68,1.65C385.16,17.85,384.94,17.92,384.66,18Zm-1.84-2.56v1.88c.63-.05,1.21-.08,1.78-.14a.67.67,0,0,0,.59-.53.76.76,0,0,0-.56-1.06A16.14,16.14,0,0,0,382.82,15.48Z" fill="#767575"/><path d="M382.82,15.48a16.14,16.14,0,0,1,1.81.15.76.76,0,0,1,.56,1.06.67.67,0,0,1-.59.53c-.57.06-1.15.09-1.78.14Z" fill="#f8f9f900"/></svg>