<?xml version="1.0" encoding="UTF-8"?>
<!DOCTYPE svg PUBLIC "-//W3C//DTD SVG 1.1//EN" "http://www.w3.org/Graphics/SVG/1.1/DTD/svg11.dtd">
<svg xmlns="http://www.w3.org/2000/svg" version="1.1" width="1080px" height="1080px" style="shape-rendering:geometricPrecision; text-rendering:geometricPrecision; image-rendering:optimizeQuality; fill-rule:evenodd; clip-rule:evenodd" xmlns:xlink="http://www.w3.org/1999/xlink">
<g><path style="opacity:1" fill="#ab3231" d="M 520.5,50.5 C 643.296,47.8169 740.463,95.8169 812,194.5C 849.457,250.715 868.29,312.715 868.5,380.5C 871.167,380.5 873.833,380.5 876.5,380.5C 876.5,381.5 876.5,382.5 876.5,383.5C 881.5,383.5 886.5,383.5 891.5,383.5C 891.5,384.5 891.5,385.5 891.5,386.5C 896.5,386.5 901.5,386.5 906.5,386.5C 906.5,387.5 906.5,388.5 906.5,389.5C 911.352,390.979 916.352,391.979 921.5,392.5C 921.5,393.5 921.5,394.5 921.5,395.5C 923.5,395.5 925.5,395.5 927.5,395.5C 927.5,396.5 927.5,397.5 927.5,398.5C 929.5,398.5 931.5,398.5 933.5,398.5C 933.5,399.5 933.5,400.5 933.5,401.5C 935.5,401.5 937.5,401.5 939.5,401.5C 939.5,402.5 939.5,403.5 939.5,404.5C 941.5,404.5 943.5,404.5 945.5,404.5C 945.5,405.5 945.5,406.5 945.5,407.5C 948.787,408.264 951.454,410.097 953.5,413C 954.793,413.49 956.127,413.657 957.5,413.5C 957.5,414.5 957.5,415.5 957.5,416.5C 958.5,416.5 959.5,416.5 960.5,416.5C 960.5,417.5 960.5,418.5 960.5,419.5C 961.5,419.5 962.5,419.5 963.5,419.5C 963.5,421.5 963.5,423.5 963.5,425.5C 964.5,425.5 965.5,425.5 966.5,425.5C 966.5,426.5 966.5,427.5 966.5,428.5C 967.5,428.5 968.5,428.5 969.5,428.5C 970.03,431.682 971.03,434.682 972.5,437.5C 973.5,437.5 974.5,437.5 975.5,437.5C 975.5,439.5 975.5,441.5 975.5,443.5C 976.5,443.5 977.5,443.5 978.5,443.5C 978.5,445.5 978.5,447.5 978.5,449.5C 979.5,449.5 980.5,449.5 981.5,449.5C 981.5,451.5 981.5,453.5 981.5,455.5C 982.5,455.5 983.5,455.5 984.5,455.5C 984.5,457.5 984.5,459.5 984.5,461.5C 985.5,461.5 986.5,461.5 987.5,461.5C 987.5,465.5 987.5,469.5 987.5,473.5C 988.5,473.5 989.5,473.5 990.5,473.5C 991.021,480.633 992.021,487.633 993.5,494.5C 994.5,494.5 995.5,494.5 996.5,494.5C 996.5,512.833 996.5,531.167 996.5,549.5C 995.5,549.5 994.5,549.5 993.5,549.5C 993.5,553.5 993.5,557.5 993.5,561.5C 992.5,561.5 991.5,561.5 990.5,561.5C 990.5,566.5 990.5,571.5 990.5,576.5C 989.5,576.5 988.5,576.5 987.5,576.5C 987.5,580.5 987.5,584.5 987.5,588.5C 986.5,588.5 985.5,588.5 984.5,588.5C 984.5,591.5 984.5,594.5 984.5,597.5C 983.5,597.5 982.5,597.5 981.5,597.5C 981.5,599.5 981.5,601.5 981.5,603.5C 980.5,603.5 979.5,603.5 978.5,603.5C 978.5,604.5 978.5,605.5 978.5,606.5C 977.5,606.5 976.5,606.5 975.5,606.5C 975.5,607.5 975.5,608.5 975.5,609.5C 974.5,609.5 973.5,609.5 972.5,609.5C 972.5,610.5 972.5,611.5 972.5,612.5C 970.5,612.5 968.5,612.5 966.5,612.5C 966.5,613.5 966.5,614.5 966.5,615.5C 963.167,615.5 959.833,615.5 956.5,615.5C 956.5,614.5 956.5,613.5 956.5,612.5C 953.5,612.5 950.5,612.5 947.5,612.5C 947.5,611.5 947.5,610.5 947.5,609.5C 945.5,609.5 943.5,609.5 941.5,609.5C 941.5,608.5 941.5,607.5 941.5,606.5C 939.5,606.5 937.5,606.5 935.5,606.5C 935.5,605.5 935.5,604.5 935.5,603.5C 934.5,603.5 933.5,603.5 932.5,603.5C 932.5,601.5 932.5,599.5 932.5,597.5C 931.5,597.5 930.5,597.5 929.5,597.5C 929.5,586.167 929.5,574.833 929.5,563.5C 930.5,563.5 931.5,563.5 932.5,563.5C 932.5,530.833 932.5,498.167 932.5,465.5C 931.5,465.5 930.5,465.5 929.5,465.5C 929.5,463.5 929.5,461.5 929.5,459.5C 928.5,459.5 927.5,459.5 926.5,459.5C 926.5,458.5 926.5,457.5 926.5,456.5C 925.5,456.5 924.5,456.5 923.5,456.5C 923.5,454.5 923.5,452.5 923.5,450.5C 922.5,450.5 921.5,450.5 920.5,450.5C 920.5,448.5 920.5,446.5 920.5,444.5C 919.5,444.5 918.5,444.5 917.5,444.5C 917.5,443.5 917.5,442.5 917.5,441.5C 916.5,441.5 915.5,441.5 914.5,441.5C 914.5,440.5 914.5,439.5 914.5,438.5C 913.5,438.5 912.5,438.5 911.5,438.5C 911.5,437.5 911.5,436.5 911.5,435.5C 909.5,435.5 907.5,435.5 905.5,435.5C 905.5,434.5 905.5,433.5 905.5,432.5C 903.5,432.5 901.5,432.5 899.5,432.5C 899.5,431.5 899.5,430.5 899.5,429.5C 895.5,429.5 891.5,429.5 887.5,429.5C 887.5,428.5 887.5,427.5 887.5,426.5C 884.5,426.5 881.5,426.5 878.5,426.5C 878.5,425.5 878.5,424.5 878.5,423.5C 874.167,423.5 869.833,423.5 865.5,423.5C 862.237,450.555 855.237,476.555 844.5,501.5C 819.545,494.871 795.212,496.705 771.5,507C 776.059,512.33 778.892,518.497 780,525.5C 784.304,544.964 787.304,564.63 789,584.5C 797.667,687.5 797.667,790.5 789,893.5C 787.277,915.836 783.611,937.836 778,959.5C 772,976.833 766,976.833 760,959.5C 753.673,934.211 749.673,908.544 748,882.5C 741.797,800.382 740.964,718.216 745.5,636C 745.167,634.833 744.833,633.667 744.5,632.5C 722.217,640.556 699.217,644.89 675.5,645.5C 673.924,655.778 672.757,666.111 672,676.5C 671.879,678.727 671.046,680.56 669.5,682C 582.833,717.333 496.167,717.333 409.5,682C 407.954,680.56 407.121,678.727 407,676.5C 406.243,666.111 405.076,655.778 403.5,645.5C 379.783,644.89 356.783,640.556 334.5,632.5C 334.167,633.667 333.833,634.833 333.5,636C 338.036,718.216 337.203,800.382 331,882.5C 329.327,908.544 325.327,934.211 319,959.5C 313,976.833 307,976.833 301,959.5C 295.389,937.836 291.723,915.836 290,893.5C 281.333,790.5 281.333,687.5 290,584.5C 291.735,561.089 295.735,538.089 302,515.5C 303.211,512.241 305.044,509.408 307.5,507C 283.788,496.705 259.455,494.871 234.5,501.5C 223.763,476.555 216.763,450.555 213.5,423.5C 209.167,423.5 204.833,423.5 200.5,423.5C 200.5,424.5 200.5,425.5 200.5,426.5C 197.5,426.5 194.5,426.5 191.5,426.5C 191.5,427.5 191.5,428.5 191.5,429.5C 187.5,429.5 183.5,429.5 179.5,429.5C 179.5,430.5 179.5,431.5 179.5,432.5C 177.5,432.5 175.5,432.5 173.5,432.5C 173.5,433.5 173.5,434.5 173.5,435.5C 171.5,435.5 169.5,435.5 167.5,435.5C 167.5,436.5 167.5,437.5 167.5,438.5C 166.5,438.5 165.5,438.5 164.5,438.5C 164.5,439.5 164.5,440.5 164.5,441.5C 163.5,441.5 162.5,441.5 161.5,441.5C 161.5,442.5 161.5,443.5 161.5,444.5C 160.5,444.5 159.5,444.5 158.5,444.5C 158.5,446.5 158.5,448.5 158.5,450.5C 157.5,450.5 156.5,450.5 155.5,450.5C 155.5,452.5 155.5,454.5 155.5,456.5C 154.5,456.5 153.5,456.5 152.5,456.5C 152.5,457.5 152.5,458.5 152.5,459.5C 151.5,459.5 150.5,459.5 149.5,459.5C 149.5,461.5 149.5,463.5 149.5,465.5C 148.5,465.5 147.5,465.5 146.5,465.5C 146.5,498.167 146.5,530.833 146.5,563.5C 147.5,563.5 148.5,563.5 149.5,563.5C 149.5,574.833 149.5,586.167 149.5,597.5C 148.5,597.5 147.5,597.5 146.5,597.5C 146.5,599.5 146.5,601.5 146.5,603.5C 145.5,603.5 144.5,603.5 143.5,603.5C 143.5,604.5 143.5,605.5 143.5,606.5C 141.5,606.5 139.5,606.5 137.5,606.5C 137.5,607.5 137.5,608.5 137.5,609.5C 135.5,609.5 133.5,609.5 131.5,609.5C 131.5,610.5 131.5,611.5 131.5,612.5C 128.5,612.5 125.5,612.5 122.5,612.5C 122.5,613.5 122.5,614.5 122.5,615.5C 119.167,615.5 115.833,615.5 112.5,615.5C 112.5,614.5 112.5,613.5 112.5,612.5C 110.5,612.5 108.5,612.5 106.5,612.5C 106.5,611.5 106.5,610.5 106.5,609.5C 105.5,609.5 104.5,609.5 103.5,609.5C 103.5,608.5 103.5,607.5 103.5,606.5C 102.5,606.5 101.5,606.5 100.5,606.5C 100.5,605.5 100.5,604.5 100.5,603.5C 99.5,603.5 98.5,603.5 97.5,603.5C 97.5,601.5 97.5,599.5 97.5,597.5C 96.5,597.5 95.5,597.5 94.5,597.5C 94.5,594.5 94.5,591.5 94.5,588.5C 93.5,588.5 92.5,588.5 91.5,588.5C 91.5,584.5 91.5,580.5 91.5,576.5C 90.5,576.5 89.5,576.5 88.5,576.5C 88.5,571.5 88.5,566.5 88.5,561.5C 87.5,561.5 86.5,561.5 85.5,561.5C 85.5,557.5 85.5,553.5 85.5,549.5C 84.5,549.5 83.5,549.5 82.5,549.5C 82.5,531.167 82.5,512.833 82.5,494.5C 83.5,494.5 84.5,494.5 85.5,494.5C 86.9792,487.633 87.9792,480.633 88.5,473.5C 89.5,473.5 90.5,473.5 91.5,473.5C 91.5,469.5 91.5,465.5 91.5,461.5C 92.5,461.5 93.5,461.5 94.5,461.5C 94.5,459.5 94.5,457.5 94.5,455.5C 95.5,455.5 96.5,455.5 97.5,455.5C 97.5,453.5 97.5,451.5 97.5,449.5C 98.5,449.5 99.5,449.5 100.5,449.5C 100.5,447.5 100.5,445.5 100.5,443.5C 101.5,443.5 102.5,443.5 103.5,443.5C 103.5,441.5 103.5,439.5 103.5,437.5C 104.5,437.5 105.5,437.5 106.5,437.5C 107.97,434.682 108.97,431.682 109.5,428.5C 110.5,428.5 111.5,428.5 112.5,428.5C 112.5,427.5 112.5,426.5 112.5,425.5C 113.5,425.5 114.5,425.5 115.5,425.5C 115.5,423.5 115.5,421.5 115.5,419.5C 116.5,419.5 117.5,419.5 118.5,419.5C 118.5,418.5 118.5,417.5 118.5,416.5C 119.5,416.5 120.5,416.5 121.5,416.5C 121.5,415.5 121.5,414.5 121.5,413.5C 125.326,413.203 128.326,411.37 130.5,408C 131.448,407.517 132.448,407.351 133.5,407.5C 133.5,406.5 133.5,405.5 133.5,404.5C 135.5,404.5 137.5,404.5 139.5,404.5C 139.5,403.5 139.5,402.5 139.5,401.5C 141.5,401.5 143.5,401.5 145.5,401.5C 145.5,400.5 145.5,399.5 145.5,398.5C 147.5,398.5 149.5,398.5 151.5,398.5C 151.5,397.5 151.5,396.5 151.5,395.5C 153.5,395.5 155.5,395.5 157.5,395.5C 157.5,394.5 157.5,393.5 157.5,392.5C 162.648,391.979 167.648,390.979 172.5,389.5C 172.5,388.5 172.5,387.5 172.5,386.5C 177.5,386.5 182.5,386.5 187.5,386.5C 187.5,385.5 187.5,384.5 187.5,383.5C 192.5,383.5 197.5,383.5 202.5,383.5C 202.5,382.5 202.5,381.5 202.5,380.5C 205.167,380.5 207.833,380.5 210.5,380.5C 212.942,268.442 258.608,178.942 347.5,112C 399.448,75.5167 457.115,55.0167 520.5,50.5 Z M 412.5,203.5 C 433.949,201.812 451.116,209.479 464,226.5C 477.545,253.452 472.045,275.619 447.5,293C 426.332,304.011 405.998,302.678 386.5,289C 365.544,268.897 363.044,246.73 379,222.5C 388.105,212.368 399.272,206.035 412.5,203.5 Z M 651.5,203.5 C 672.949,201.812 690.116,209.479 703,226.5C 716.545,253.452 711.045,275.619 686.5,293C 665.332,304.011 644.998,302.678 625.5,289C 604.544,268.897 602.044,246.73 618,222.5C 627.105,212.368 638.272,206.035 651.5,203.5 Z M 316.5,511.5 C 340.242,525.741 359.576,544.575 374.5,568C 359.271,570.244 344.604,574.41 330.5,580.5C 328.143,565.17 325.643,549.837 323,534.5C 321.331,526.664 319.164,518.997 316.5,511.5 Z M 761.5,511.5 C 762.043,511.56 762.376,511.893 762.5,512.5C 758.928,521.187 756.428,530.187 755,539.5C 752.913,553.206 750.746,566.873 748.5,580.5C 734.396,574.41 719.729,570.244 704.5,568C 719.404,544.928 738.404,526.095 761.5,511.5 Z"/></g>
<g><path style="opacity:1" fill="#000000" d="M 155.5,248.5 C 156.833,249.167 156.833,249.167 155.5,248.5 Z"/></g>
<g><path style="opacity:1" fill="#000000" d="M 922.5,248.5 C 923.833,249.167 923.833,249.167 922.5,248.5 Z"/></g>
</svg>
